<?xml version="1.0" encoding="utf-8"?>
<!-- Generator: Adobe Illustrator 26.0.2, SVG Export Plug-In . SVG Version: 6.00 Build 0)  -->
<svg version="1.1" id="Layer_1" xmlns="http://www.w3.org/2000/svg" xmlns:xlink="http://www.w3.org/1999/xlink" x="0px" y="0px"
	 viewBox="0 0 1000 1000" style="enable-background:new 0 0 1000 1000;" xml:space="preserve">
<style type="text/css">
	.st0{fill:#D6E2E0;}
</style>
<g>
	<path class="st0" d="M276.9,556c0-112.1,0-224.4,0-338.8c-107.9,61.3-170.4,228-139.2,361.5c32.1,137.2,153.2,273.7,361.2,283.1
		c0,16.6,0,33.3,0,50c-157.7,25.1-358.8-121-410.4-297.9c-57.8-198,47.4-416.1,242.4-494.1c0,127.9,0,253.8,0,383.2
		c82.2,0,159.3,0,238,0c0,19.3,0,35.2,0,53C472.8,556,376.9,556,276.9,556z"/>
	<path class="st0" d="M415.9,148.9c0-20.2,0-36.4,0-52.3c137.7-39,374,19.4,474.1,234.9c92.6,199.6,3.4,421.2-160.8,516.7
		c-7.8-15.4-15.5-30.7-23-45.6c159.5-143.1,203.5-286.4,136-441c-35.2-80.6-93-141.3-173-181.5C589.9,140.2,505.8,131.9,415.9,148.9
		z"/>
	<path class="st0" d="M562.6,690.2c31.8,73.1,62.6,143.9,95.2,218.9c-18.2,0-33,0.9-47.7-0.4c-5.9-0.6-14.5-4.8-16.5-9.6
		c-38.5-87.3-76.3-175-115.9-266.6c28.8,0,53.4,0.3,78.1-0.1c62.5-0.8,107.6-44.1,107.6-102.7c0-58.7-44.7-102.1-107.3-103
		c-45.6-0.7-91.4-2-136.9,0.5c-26.6,1.5-39.7-7.4-44-31.8c-1.3-7.5-4.3-14.7-6.9-23.5c70.7,0,139.8-3.8,208.2,1
		c79.4,5.5,141.3,73.9,144.3,150.4c3,76.3-51.1,143.7-128.9,160.7C583.1,685.8,574.4,687.7,562.6,690.2z"/>
</g>
</svg>
