<?xml version="1.0" encoding="utf-8"?>
<!-- Generator: Adobe Illustrator 26.0.2, SVG Export Plug-In . SVG Version: 6.00 Build 0)  -->
<svg version="1.1" id="Layer_1" xmlns="http://www.w3.org/2000/svg" xmlns:xlink="http://www.w3.org/1999/xlink" x="0px" y="0px"
	 viewBox="0 0 1000 1000" style="enable-background:new 0 0 1000 1000;" xml:space="preserve">
<style type="text/css">
	.st0{fill:#D6E2E0;}
</style>
<g>
	<path class="st0" d="M276.9,556c0-112.1,0-224.4,0-338.8c-107.9,61.3-170.4,228-139.2,361.5c32.1,137.2,153.2,273.7,361.2,283.1
		c0,16.6,0,33.3,0,50c-157.7,25.1-358.8-121-410.4-297.9c-57.8-198,47.4-416.1,242.4-494.1c0,127.9,0,253.8,0,383.2
		c82.2,0,159.3,0,238,0c0,19.3,0,35.2,0,53C472.8,556,376.9,556,276.9,556z"/>
</g>
</svg>
